<svg style="max-height: 500px" viewBox="0 0 60.13100263852243 79.64664310954063" fill="none" xmlns="http://www.w3.org/2000/svg" width="60.13100263852243" height="79.64664310954063">
<path d="M74.8708 91.9574C71.8029 91.9574 69.154 91.2898 66.9241 89.9547C64.7084 88.6196 62.9969 86.7519 61.7896 84.3515C60.5965 81.9512 60 79.1602 60 75.9787C60 72.7972 60.5965 70.0062 61.7896 67.6059C62.9969 65.2055 64.7084 63.3378 66.9241 62.0027C69.154 60.6676 71.8029 60 74.8708 60C78.3933 60 81.3475 60.8735 83.7337 62.6205C86.134 64.3675 87.8242 66.7324 88.8043 69.715L82.9667 71.3342C82.3986 69.4736 81.4399 68.032 80.0905 67.0093C78.7412 65.9725 77.0013 65.4541 74.8708 65.4541C72.925 65.4541 71.2987 65.8873 69.992 66.7537C68.6995 67.6201 67.7266 68.8415 67.0732 70.4181C66.4199 71.9947 66.0932 73.8482 66.0932 75.9787C66.0932 78.1092 66.4199 79.9627 67.0732 81.5393C67.7266 83.1158 68.6995 84.3373 69.992 85.2037C71.2987 86.0701 72.925 86.5033 74.8708 86.5033C77.0013 86.5033 78.7412 85.9849 80.0905 84.9481C81.4399 83.9112 82.3986 82.4696 82.9667 80.6232L88.8043 82.2423C87.8242 85.225 86.134 87.5899 83.7337 89.3369C81.3475 91.0839 78.3933 91.9574 74.8708 91.9574Z" fill="white"/>
<path d="M102.06 92C100.256 92 98.7861 91.6946 97.6498 91.0839C96.5135 90.4731 95.6258 89.6991 94.9867 88.7617C94.3617 87.8242 93.9143 86.8513 93.6445 85.8429C93.3746 84.8202 93.2113 83.8899 93.1545 83.0519C93.0976 82.2139 93.0692 81.6032 93.0692 81.2197V68.3089H98.9494V79.1744C98.9494 79.7 98.9778 80.3746 99.0346 81.1984C99.0914 82.008 99.269 82.8247 99.5672 83.6485C99.8655 84.4723 100.348 85.1611 101.016 85.715C101.698 86.269 102.656 86.5459 103.892 86.5459C104.389 86.5459 104.922 86.4678 105.49 86.3116C106.058 86.1553 106.591 85.8571 107.088 85.4168C107.585 84.9623 107.99 84.3018 108.302 83.4354C108.629 82.5548 108.792 81.4044 108.792 79.984L112.116 81.5606C112.116 83.3786 111.747 85.083 111.008 86.6738C110.269 88.2645 109.154 89.5499 107.663 90.53C106.186 91.51 104.318 92 102.06 92ZM109.517 91.3182V83.6911H108.792V68.3089H114.63V91.3182H109.517Z" fill="white"/>
<path d="M134.39 91.3182C132.799 91.6165 131.237 91.7443 129.703 91.7017C128.183 91.6733 126.819 91.4106 125.612 90.9135C124.419 90.4021 123.51 89.5854 122.885 88.4634C122.317 87.4123 122.019 86.3471 121.99 85.2676C121.962 84.174 121.948 82.9383 121.948 81.5606V61.9174H127.743V81.2197C127.743 82.1145 127.75 82.9241 127.764 83.6485C127.792 84.3586 127.942 84.9268 128.211 85.3529C128.723 86.1625 129.539 86.6028 130.661 86.6738C131.784 86.7448 133.026 86.688 134.39 86.5033V91.3182ZM118.028 72.783V68.3089H134.39V72.783H118.028Z" fill="white"/>
<path d="M139.517 91.3182V60.6391H144.716L154.857 81.0067L164.998 60.6391H170.196V91.3182H164.785V72.996L155.879 91.3182H153.834L144.929 72.996V91.3182H139.517Z" fill="white"/>
<path d="M186.872 91.9574C184.514 91.9574 182.433 91.4532 180.629 90.4447C178.84 89.4221 177.434 88.0231 176.411 86.2477C175.403 84.4581 174.898 82.4128 174.898 80.1119C174.898 77.5979 175.396 75.4106 176.39 73.5499C177.384 71.6893 178.755 70.2477 180.502 69.225C182.249 68.1882 184.258 67.6698 186.531 67.6698C188.946 67.6698 190.998 68.2379 192.688 69.3742C194.378 70.5104 195.628 72.1083 196.438 74.1678C197.247 76.2273 197.531 78.6489 197.29 81.4328H191.559V79.3023C191.559 76.9587 191.183 75.2756 190.43 74.253C189.691 73.2162 188.477 72.6977 186.787 72.6977C184.812 72.6977 183.357 73.3014 182.419 74.5087C181.496 75.7017 181.034 77.47 181.034 79.8136C181.034 81.9583 181.496 83.6201 182.419 84.7989C183.357 85.9636 184.727 86.5459 186.531 86.5459C187.667 86.5459 188.64 86.2974 189.45 85.8003C190.259 85.3032 190.877 84.5859 191.303 83.6485L197.098 85.3103C196.232 87.4123 194.861 89.0457 192.986 90.2104C191.126 91.3751 189.088 91.9574 186.872 91.9574ZM179.245 81.4328V77.1292H194.499V81.4328H179.245Z" fill="white"/>
<path d="M222.221 91.9574C219.948 91.9574 217.896 91.5597 216.064 90.7643C214.246 89.9547 212.747 88.8043 211.568 87.3129C210.404 85.8074 209.665 84.0178 209.353 81.9441L215.403 81.0493C215.829 82.8105 216.71 84.1669 218.045 85.1185C219.38 86.0701 220.9 86.5459 222.604 86.5459C223.556 86.5459 224.479 86.3968 225.374 86.0985C226.269 85.8003 227 85.36 227.568 84.7776C228.151 84.1953 228.442 83.478 228.442 82.6258C228.442 82.3134 228.392 82.0151 228.293 81.731C228.207 81.4328 228.058 81.1558 227.845 80.9001C227.632 80.6445 227.327 80.403 226.929 80.1758C226.546 79.9485 226.056 79.7426 225.459 79.5579L217.491 77.2144C216.894 77.0439 216.199 76.8025 215.403 76.49C214.622 76.1775 213.862 75.7301 213.123 75.1478C212.385 74.5655 211.767 73.7985 211.27 72.8469C210.787 71.881 210.546 70.6667 210.546 69.2037C210.546 67.1443 211.064 65.4328 212.101 64.0692C213.138 62.7057 214.523 61.6902 216.255 61.0226C217.988 60.3551 219.906 60.0284 222.008 60.0426C224.124 60.071 226.013 60.4332 227.675 61.1292C229.337 61.8251 230.728 62.8407 231.851 64.1758C232.973 65.4967 233.782 67.1158 234.279 69.0333L228.016 70.0985C227.788 69.1043 227.369 68.2663 226.759 67.5846C226.148 66.9028 225.416 66.3844 224.564 66.0293C223.726 65.6742 222.846 65.4825 221.922 65.4541C221.013 65.4257 220.154 65.5535 219.345 65.8375C218.549 66.1074 217.896 66.5051 217.384 67.0306C216.887 67.5561 216.639 68.1811 216.639 68.9055C216.639 69.573 216.845 70.1198 217.257 70.5459C217.669 70.9578 218.187 71.2916 218.812 71.5473C219.437 71.8029 220.076 72.016 220.729 72.1864L226.056 73.6352C226.851 73.8482 227.732 74.1323 228.697 74.4874C229.663 74.8282 230.586 75.3111 231.467 75.9361C232.362 76.5468 233.093 77.3564 233.661 78.3648C234.244 79.3733 234.535 80.6516 234.535 82.1997C234.535 83.8473 234.187 85.2889 233.491 86.5246C232.809 87.7461 231.886 88.7617 230.721 89.5712C229.557 90.3666 228.236 90.9632 226.759 91.3609C225.296 91.7585 223.783 91.9574 222.221 91.9574Z" fill="white"/>
<path d="M254.898 91.3182V80.4527C254.898 79.9272 254.87 79.2597 254.813 78.4501C254.756 77.6263 254.579 76.8025 254.28 75.9787C253.982 75.1549 253.492 74.466 252.81 73.9121C252.143 73.3582 251.191 73.0812 249.955 73.0812C249.458 73.0812 248.926 73.1593 248.358 73.3156C247.789 73.4718 247.257 73.7772 246.76 74.2317C246.263 74.672 245.851 75.3253 245.524 76.1917C245.211 77.0581 245.055 78.2086 245.055 79.6431L241.732 78.0666C241.732 76.2486 242.101 74.5442 242.84 72.9534C243.578 71.3626 244.686 70.0772 246.163 69.0972C247.654 68.1172 249.529 67.6272 251.788 67.6272C253.591 67.6272 255.061 67.9325 256.198 68.5433C257.334 69.154 258.215 69.9281 258.84 70.8655C259.479 71.8029 259.933 72.783 260.203 73.8056C260.473 74.814 260.636 75.7372 260.693 76.5752C260.75 77.4132 260.778 78.024 260.778 78.4075V91.3182H254.898ZM239.175 91.3182V60.6391H244.331V76.4048H245.055V91.3182H239.175Z" fill="white"/>
<path d="M276.661 91.9574C274.346 91.9574 272.315 91.439 270.568 90.4021C268.821 89.3653 267.457 87.9379 266.477 86.1198C265.511 84.2876 265.028 82.1855 265.028 79.8136C265.028 77.4132 265.525 75.304 266.52 73.486C267.514 71.6538 268.884 70.2264 270.631 69.2037C272.378 68.1811 274.388 67.6698 276.661 67.6698C278.976 67.6698 281.007 68.1882 282.754 69.225C284.515 70.2619 285.886 71.6964 286.866 73.5286C287.846 75.3466 288.336 77.4416 288.336 79.8136C288.336 82.1997 287.839 84.3089 286.845 86.1411C285.864 87.9592 284.494 89.3866 282.733 90.4234C280.986 91.4461 278.962 91.9574 276.661 91.9574ZM276.661 86.5459C278.521 86.5459 279.906 85.921 280.815 84.6711C281.738 83.407 282.2 81.7878 282.2 79.8136C282.2 77.7683 281.731 76.1349 280.794 74.9134C279.871 73.692 278.493 73.0812 276.661 73.0812C275.397 73.0812 274.36 73.3653 273.55 73.9334C272.741 74.5016 272.137 75.2898 271.739 76.2983C271.356 77.3067 271.164 78.4785 271.164 79.8136C271.164 81.8731 271.626 83.5135 272.549 84.735C273.486 85.9423 274.857 86.5459 276.661 86.5459Z" fill="white"/>
<path d="M293.021 91.3182V68.3089H298.134V73.9334L297.58 73.2091C297.878 72.4137 298.276 71.6893 298.773 71.036C299.27 70.3826 299.881 69.8429 300.606 69.4168C301.159 69.0759 301.763 68.8131 302.416 68.6285C303.07 68.4296 303.744 68.3089 304.44 68.2663C305.136 68.2095 305.832 68.2237 306.528 68.3089V73.7204C305.889 73.5215 305.143 73.4576 304.291 73.5286C303.453 73.5854 302.693 73.7772 302.012 74.1039C301.33 74.4163 300.755 74.8353 300.286 75.3609C299.817 75.8722 299.462 76.4829 299.221 77.1931C298.979 77.889 298.858 78.6773 298.858 79.5579V91.3182H293.021Z" fill="white"/>
<path d="M324.386 91.3182C322.796 91.6165 321.233 91.7443 319.699 91.7017C318.18 91.6733 316.816 91.4106 315.609 90.9135C314.416 90.4021 313.507 89.5854 312.882 88.4634C312.314 87.4123 312.015 86.3471 311.987 85.2676C311.959 84.174 311.944 82.9383 311.944 81.5606V61.9174H317.739V81.2197C317.739 82.1145 317.746 82.9241 317.761 83.6485C317.789 84.3586 317.938 84.9268 318.208 85.3529C318.719 86.1625 319.536 86.6028 320.658 86.6738C321.78 86.7448 323.023 86.688 324.386 86.5033V91.3182ZM308.024 72.783V68.3089H324.386V72.783H308.024Z" fill="white"/>
<path d="M0 30C0 13.4316 13.4316 0 30 0C46.5684 0 60 13.4316 60 30C60 46.5684 45.8137 60.9824 28.1583 59.907C29.348 65.6616 32.2909 71.325 35.146 75.7588C36.4491 77.7821 34.0635 80.1341 32.0632 78.7946C15.2689 67.5512 0 49.9702 0 30Z" fill="white"/>
<path d="M32.4494 28.4566C32.4494 23.4027 36.5466 19.3047 41.6014 19.3047C46.6561 19.3047 50.7533 23.4018 50.7533 28.4566C50.7533 33.5114 46.4258 37.908 41.0397 37.5802C41.4029 39.336 42.3003 41.0634 43.1711 42.4162C43.5689 43.0336 42.8407 43.7512 42.2312 43.3419C37.1082 39.9118 32.4503 34.5487 32.4503 28.4566H32.4494Z" fill="#552ACC"/>
<path d="M10.9892 28.4566C10.9892 23.4027 15.0864 19.3047 20.1412 19.3047C25.1959 19.3047 29.2931 23.4018 29.2931 28.4566C29.2931 33.5114 24.9656 37.908 19.5795 37.5802C19.9427 39.336 20.8401 41.0634 21.7109 42.4162C22.1087 43.0336 21.3805 43.7512 20.771 43.3419C15.648 39.9118 10.9901 34.5487 10.9901 28.4566H10.9892Z" fill="#552ACC"/>
</svg>